HIERARCHY
ROOT hip
{
  OFFSET 0 0 0
  CHANNELS 6 Xposition Yposition Zposition Zrotation Yrotation Xrotation
  JOINT abdomen
  {
    OFFSET 0 20.6881 -0.73152
    CHANNELS 3 Zrotation Xrotation Yrotation
    JOINT chest
    {
      OFFSET 0 11.7043 -0.48768
      CHANNELS 3 Zrotation Xrotation Yrotation
      JOINT neck
      {
        OFFSET 0 22.1894 -2.19456
        CHANNELS 3 Zrotation Xrotation Yrotation
        JOINT head
        {
          OFFSET -0.24384 7.07133 1.2192
          CHANNELS 3 Zrotation Xrotation Yrotation
          JOINT leftEye
          {
            OFFSET 4.14528 8.04674 8.04672
            CHANNELS 3 Zrotation Xrotation Yrotation
            End Site
            {
              OFFSET 1 0 0
            }
          }
          JOINT rightEye
          {
            OFFSET -3.6576 8.04674 8.04672
            CHANNELS 3 Zrotation Xrotation Yrotation
            End Site
            {
              OFFSET 1 0 0
            }
          }
        }
      }
      JOINT rCollar
      {
        OFFSET -2.68224 19.2634 -4.8768
        CHANNELS 3 Zrotation Xrotation Yrotation
        JOINT rShldr
        {
          OFFSET -8.77824 -1.95073 1.46304
          CHANNELS 3 Zrotation Xrotation Yrotation
          JOINT rForeArm
          {
            OFFSET -28.1742 -1.7115 0.48768
            CHANNELS 3 Zrotation Xrotation Yrotation
            JOINT rHand
            {
              OFFSET -22.5879 0.773209 7.07136
              CHANNELS 3 Zrotation Xrotation Yrotation
              JOINT rThumb1
              {
                OFFSET -1.2192 -0.487915 3.41376
                CHANNELS 3 Zrotation Xrotation Yrotation
                JOINT rThumb2
                {
                  OFFSET -3.37035 -0.52449 3.41376
                  CHANNELS 3 Zrotation Xrotation Yrotation
                  End Site
                  {
                    OFFSET -1.78271 -1.18214 1.43049
                  }
                }
              }
              JOINT rIndex1
              {
                OFFSET -7.75947 0.938293 5.60832
                CHANNELS 3 Zrotation Xrotation Yrotation
                JOINT rIndex2
                {
                  OFFSET -2.54057 -0.884171 1.56538
                  CHANNELS 3 Zrotation Xrotation Yrotation
                  End Site
                  {
                    OFFSET -1.62519 -0.234802 1.16502
                  }
                }
              }
              JOINT rMid1
              {
                OFFSET -8.24714 1.18213 3.41376
                CHANNELS 3 Zrotation Xrotation Yrotation
                JOINT rMid2
                {
                  OFFSET -3.10165 -0.590103 1.0647
                  CHANNELS 3 Zrotation Xrotation Yrotation
                  End Site
                  {
                    OFFSET -2.48547 -0.328903 0.83742
                  }
                }
              }
              JOINT rRing1
              {
                OFFSET -8.82822 0.546677 1.51678
                CHANNELS 3 Zrotation Xrotation Yrotation
                JOINT rRing2
                {
                  OFFSET -2.60934 -0.819778 -0.0198488
                  CHANNELS 3 Zrotation Xrotation Yrotation
                  End Site
                  {
                    OFFSET -2.33842 -0.294052 0.168128
                  }
                }
              }
              JOINT rPinky1
              {
                OFFSET -8.27202 -0.0477905 -0.4584
                CHANNELS 3 Zrotation Xrotation Yrotation
                JOINT rPinky2
                {
                  OFFSET -1.82734 -0.647385 -0.700984
                  CHANNELS 3 Zrotation Xrotation Yrotation
                  End Site
                  {
                    OFFSET -1.69225 -0.51767 -0.607171
                  }
                }
              }
            }
          }
        }
      }
      JOINT lCollar
      {
        OFFSET 2.68224 19.2634 -4.8768
        CHANNELS 3 Zrotation Xrotation Yrotation
        JOINT lShldr
        {
          OFFSET 8.77824 -1.95073 1.46304
          CHANNELS 3 Zrotation Xrotation Yrotation
          JOINT lForeArm
          {
            OFFSET 28.1742 -1.7115 0.48768
            CHANNELS 3 Zrotation Xrotation Yrotation
            JOINT lHand
            {
              OFFSET 22.5879 0.773209 7.07136
              CHANNELS 3 Zrotation Xrotation Yrotation
              JOINT lThumb1
              {
                OFFSET 1.2192 -0.487915 3.41376
                CHANNELS 3 Zrotation Xrotation Yrotation
                JOINT lThumb2
                {
                  OFFSET 3.37035 -0.52449 3.41376
                  CHANNELS 3 Zrotation Xrotation Yrotation
                  End Site
                  {
                    OFFSET 1.78271 -1.18214 1.43049
                  }
                }
              }
              JOINT lIndex1
              {
                OFFSET 7.75947 0.938293 5.60832
                CHANNELS 3 Zrotation Xrotation Yrotation
                JOINT lIndex2
                {
                  OFFSET 2.54057 -0.884171 1.56538
                  CHANNELS 3 Zrotation Xrotation Yrotation
                  End Site
                  {
                    OFFSET 1.62519 -0.234802 1.16502
                  }
                }
              }
              JOINT lMid1
              {
                OFFSET 8.24714 1.18213 3.41376
                CHANNELS 3 Zrotation Xrotation Yrotation
                JOINT lMid2
                {
                  OFFSET 3.10165 -0.590103 1.0647
                  CHANNELS 3 Zrotation Xrotation Yrotation
                  End Site
                  {
                    OFFSET 2.48547 -0.328903 0.83742
                  }
                }
              }
              JOINT lRing1
              {
                OFFSET 8.82822 0.546677 1.51678
                CHANNELS 3 Zrotation Xrotation Yrotation
                JOINT lRing2
                {
                  OFFSET 2.60934 -0.819778 -0.0198488
                  CHANNELS 3 Zrotation Xrotation Yrotation
                  End Site
                  {
                    OFFSET 2.33842 -0.294052 0.168128
                  }
                }
              }
              JOINT lPinky1
              {
                OFFSET 8.27202 -0.0477905 -0.4584
                CHANNELS 3 Zrotation Xrotation Yrotation
                JOINT lPinky2
                {
                  OFFSET 1.82734 -0.647385 -0.700984
                  CHANNELS 3 Zrotation Xrotation Yrotation
                  End Site
                  {
                    OFFSET 1.69225 -0.51767 -0.607171
                  }
                }
              }
            }
          }
        }
      }
    }
  }
  JOINT rButtock
  {
    OFFSET -8.77824 4.35084 1.2192
    CHANNELS 3 Zrotation Xrotation Yrotation
    JOINT rThigh
    {
      OFFSET 0 -1.70687 -2.19456
      CHANNELS 3 Zrotation Xrotation Yrotation
      JOINT rShin
      {
        OFFSET 0 -36.8199 0.73152
        CHANNELS 3 Zrotation Xrotation Yrotation
        JOINT rFoot
        {
          OFFSET 0.73152 -45.1104 -5.12064
          CHANNELS 3 Zrotation Xrotation Yrotation
          End Site
          {
            OFFSET -1.1221 -3.69964 12.103
          }
        }
      }
    }
  }
  JOINT lButtock
  {
    OFFSET 8.77824 4.35084 1.2192
    CHANNELS 3 Zrotation Xrotation Yrotation
    JOINT lThigh
    {
      OFFSET 0 -1.70687 -2.19456
      CHANNELS 3 Zrotation Xrotation Yrotation
      JOINT lShin
      {
        OFFSET 0 -36.8199 0.73152
        CHANNELS 3 Zrotation Xrotation Yrotation
        JOINT lFoot
        {
          OFFSET -0.73152 -45.1104 -5.12064
          CHANNELS 3 Zrotation Xrotation Yrotation
          End Site
          {
            OFFSET 1.1221 -3.69964 12.103
          }
        }
      }
    }
  }
}
MOTION
Frames:	5
Frame Time:	0.03333
0.0 0.0 0.0 0.0 0.0 0.0 0.0 0.0 0.0 0.0 0.0 0.0 0.0 0.0 0.0 0.0 0.0 0.0 0.0 0.0 0.0 0.0 0.0 0.0 0.0 0.0 0.0 0.0 0.0 0.0 0.0 0.0 0.0 0.0 0.0 0.0 0.0 0.0 0.0 0.0 0.0 0.0 0.0 0.0 0.0 0.0 0.0 0.0 0.0 0.0 0.0 0.0 0.0 0.0 0.0 0.0 0.0 0.0 0.0 0.0 0.0 0.0 0.0 0.0 0.0 0.0 0.0 0.0 0.0 0.0 0.0 0.0 0.0 0.0 0.0 0.0 0.0 0.0 0.0 0.0 0.0 0.0 0.0 0.0 0.0 0.0 0.0 0.0 0.0 0.0 0.0 0.0 0.0 0.0 0.0 0.0 0.0 0.0 0.0 0.0 0.0 0.0 0.0 0.0 0.0 0.0 0.0 0.0 0.0 0.0 0.0 0.0 0.0 0.0 0.0 0.0 0.0 0.0 0.0 0.0 0.0 0.0 0.0 0.0 0.0 0.0 0.0 0.0 0.0 0.0 0.0 0.0
0.0546 56.028999999999996 0.29410000000000003 -85.835209 76.234366 -78.73549 8.823095 9.307012 -28.443389 3.913947 -6.356799 33.700012 10.82549 22.633985 110.030954 -32.880849 14.674632 -86.710004 0.000426 0.0 0.001824 -0.000311 0.0 -0.005536 -152.128472 14.11323 157.556926 -47.668579 -0.826283 63.117915 10.692986 11.195245 -147.349351 -138.508546 36.359964 121.719483 -68.482984 37.953126 35.659588 -84.60363 -1.793416 68.251701 37.216943 -57.917417 -0.641463 -155.896641 -13.474794 113.68418 7.904593 -24.807534 -3.013236 -155.567944 16.786377 139.588837 -0.019997 -1.725455 -0.540552 -156.213979 -46.142881 177.540284 29.736416 82.139989 8.090836 -44.526858 -50.107293 -43.895373 -1.675764 -11.490141 2.385241 -82.353958 -18.234557 -77.327476 -91.608862 -55.258582 -72.955839 -169.452837 13.230361 -164.844237 117.339511 32.016368 -69.455192 -171.958481 -36.045303 -76.351129 153.454716 -21.06783 -121.743224 4.696664 28.206421 1.853961 6.646608 17.10887 -4.325535 163.671625 -6.1854 -143.485548 145.119515 0.267983 179.211934 -12.114573 44.703156 3.864223 -31.497687 83.083424 -6.661569 6.51035 -17.508702 7.775315 0.000361 -0.000392 -0.000465 -7.616983 3.783438 114.11144 35.783322 -27.458756 -11.352816 -94.600576 -25.914885 -167.80521 -179.992031 75.750034 -0.005453 -151.363113 -4.078189 -97.420411 -74.511376 4.184934 141.339956 -79.59847 35.413381 2.940288
0.1173 56.106500000000004 0.4397 -85.872631 76.227915 -78.544806 5.17582 6.885616 87.017842 -5.215796 -4.271296 -82.00384 1.937897 10.949286 20.404476 -3.303739 -24.153454 -1.928436 -0.001895 -0.0 0.000779 -0.001895 -0.0 0.000779 -0.27324 1.606793 0.361026 -169.75253 51.306082 -119.615162 -149.513276 84.063443 7.069832 -146.572282 27.685994 130.121873 -176.597668 -14.213297 89.692128 165.621114 -31.042541 101.62977 -46.20835 39.653677 36.317407 5.932069 1.233831 -2.365404 -82.840484 61.111056 74.532321 -174.245981 -37.19808 143.386542 -145.118284 0.185507 -179.186375 -54.884161 87.582406 68.084279 16.822815 58.945656 12.651874 -76.71768 -54.323912 -75.466911 2.545326 12.966411 -3.197464 126.289408 21.529251 -91.795358 16.536937 -61.27088 64.28689 -57.717415 -56.40893 -60.546326 4.167101 4.057199 -0.783543 122.341525 -15.89999 -109.024492 46.208777 39.653203 -36.317745 21.453779 33.314838 -11.288108 39.290615 53.365603 -32.878181 -5.348573 -5.835136 0.594932 0.00035 0.063756 -0.02062 -11.10645 -13.792369 1.71468 -10.593561 34.894313 -9.104631 152.969764 29.120422 146.958294 -179.999587 75.750577 -0.00034 143.927922 79.018677 35.441121 1.681636 35.298484 -28.197486 -71.994136 -3.539689 1.708741 -179.997561 75.748416 0.0 -151.139457 -4.05138 -89.944463 -71.600943 2.599083 54.23465 102.28628 13.338359 -32.097632
0.20679999999999998 56.1505 0.567 -86.229037 76.078207 -78.750583 9.607098 7.895291 -50.939693 5.105944 -4.479026 55.893476 -3.819488 30.071662 -146.231141 16.572205 41.476114 161.032668 -0.001497 -0.0 0.001048 0.004208 0.0 0.000554 0.117586 -0.714143 -0.157427 61.119336 4.489316 -39.229753 -24.71397 4.250488 119.30591 -16.715953 -75.531129 -25.980776 -107.934529 35.149834 63.317266 24.563467 -33.907234 25.29537 -77.667827 43.030538 64.53822 -173.690726 -25.166362 113.205209 -39.290258 53.365295 32.879154 4.451336 -3.101847 -0.305439 -0.013455 -1.323055 -0.41654 -155.802723 -9.388824 172.977316 -136.957211 -9.523508 -134.262732 1.878771 -2.136424 -2.570363 155.568922 -3.943068 -161.930012 81.35819 -32.954953 97.933326 -177.374683 -7.850171 167.422695 103.982887 84.457448 -101.602189 69.522463 38.078826 -36.391199 135.55877 -27.100038 -85.129443 4.708318 7.223618 -2.854466 86.930214 47.252505 -67.42037 -7.90486 -24.807484 3.013441 12.803163 35.419654 -10.121757 145.118277 0.268497 179.21095 -12.120564 44.873157 3.845797 0.345429 -0.890222 0.317566 -10.591306 26.681645 -6.265944 0.00051 -0.000663 0.001021 -7.338114 4.301507 84.603032 39.980085 4.161316 -155.452085 65.323295 9.897029 18.490361 0.006729 0.000819 0.003365 70.692878 -60.290691 68.635448 47.752942 70.159635 36.971972 -3.051708 -17.009793 -94.090684
0.32130000000000003 56.1762 0.675 -86.776197 75.870984 -79.274471 8.011537 8.631161 -0.0 1.574813 -7.634817 4.779002 -9.187813 16.331988 -50.439536 33.034244 -4.906724 71.783267 0.004153 0.0 0.00092 0.003798 -0.0 -0.001077 -33.840288 -85.665545 -55.257698 -49.82238 -6.892369 -34.72006 80.588184 -44.037854 -97.221382 -71.227568 49.747009 52.720663 114.538578 -50.245359 55.721945 -58.379891 24.232852 13.07473 169.569073 -65.842864 109.955727 36.78511 -37.752094 -6.117892 -0.218746 0.638673 0.121991 179.880997 -49.539123 141.240222 0.005113 0.917774 0.288361 10.248423 0.109871 -0.052971 31.999495 83.321417 6.246698 -81.37675 -53.553126 -79.917273 14.147604 43.061691 -15.996174 -93.592119 -41.77852 -127.691899 13.709389 3.655849 -10.935629 3.072813 47.345568 -12.806139 -176.506268 -20.69531 -88.628743 136.238301 15.640096 -71.245126 10.572486 15.013073 -6.86518 -70.486494 -56.626714 -24.136679 15.422275 32.96176 -11.296013 152.961836 22.209728 -138.036833 0.000786 -0.06106 0.017704 156.444093 -43.521281 -177.139671 1.201973 -3.047807 1.116137 146.857187 10.299976 143.365321 -179.980159 75.748517 -0.013575 143.160223 78.527889 91.073721 31.95882 19.564051 -106.505455 29.47892 -13.967412 10.226159 -0.002432 0.000677 -0.001216 72.746538 -61.613788 164.912075 83.935582 -14.120054 69.697665 94.91077 39.523856 179.699229
